<svg version="1.1" id="Layer_1" xmlns="http://www.w3.org/2000/svg" xmlns:xlink="http://www.w3.org/1999/xlink" x="0px" y="0px"
	 width="100%" viewBox="0 0 208 140" enable-background="new 0 0 208 140" xml:space="preserve">
<path fill="#FEFEFE" opacity="1.000000" stroke="none" 
	d="
M112.000000,141.000000 
	C74.666672,141.000000 37.833336,141.000000 1.000005,141.000000 
	C1.000003,94.333336 1.000003,47.666676 1.000002,1.000011 
	C70.333321,1.000007 139.666641,1.000007 208.999969,1.000004 
	C208.999985,47.666656 208.999985,94.333313 209.000000,140.999985 
	C176.833328,141.000000 144.666672,141.000000 112.000000,141.000000 
M135.685287,108.001213 
	C139.758835,108.001213 143.832397,108.001213 148.146362,108.001213 
	C148.146362,103.110764 148.146362,98.984962 148.146362,94.696320 
	C156.823853,94.696320 165.237808,94.696320 174.149353,94.696320 
	C174.149353,99.074120 174.149353,103.317070 174.149353,107.771759 
	C179.041458,107.771759 183.436096,107.771759 187.960159,107.771759 
	C187.960159,92.771095 187.968140,78.002884 187.938583,63.234749 
	C187.936966,62.426052 187.659637,61.608204 187.448517,60.811077 
	C183.948303,47.596649 171.701385,38.838600 158.834946,40.338345 
	C144.300415,42.032520 134.321091,52.470879 134.039780,66.808510 
	C133.785233,79.782585 133.962479,92.765427 134.000565,105.744247 
	C134.002716,106.479332 134.469635,107.213058 135.685287,108.001213 
M123.194351,37.232525 
	C119.236763,37.232525 115.279182,37.232525 110.869690,37.232525 
	C110.869690,44.632942 110.869690,51.683208 110.869690,58.928810 
	C97.035355,52.749332 84.943153,55.416378 77.315750,66.020035 
	C69.951782,76.257469 70.972229,91.963142 79.593430,101.075706 
	C88.795540,110.802299 100.602608,111.095444 115.646210,101.978432 
	C118.739113,103.349747 118.574188,109.288788 123.907326,107.725433 
	C123.907326,84.450592 123.907326,61.155769 123.194351,37.232525 
M48.034462,76.447922 
	C47.351509,78.558624 46.668560,80.669327 45.685600,83.707230 
	C41.121498,68.492058 36.891304,54.390030 32.702160,40.424843 
	C27.268232,40.424843 22.223186,40.424843 16.832087,40.424843 
	C17.164673,41.579037 17.363346,42.358494 17.612896,43.121315 
	C23.336943,60.618492 29.069132,78.113007 34.794220,95.609848 
	C39.019958,108.524422 39.016434,108.525574 52.876560,107.810715 
	C60.206623,85.473824 67.577393,63.012882 75.092049,40.113491 
	C70.478569,40.113491 66.478981,40.338161 62.518696,40.040222 
	C59.516182,39.814339 58.590237,41.144299 57.839371,43.750946 
	C54.763161,54.430031 51.458107,65.043198 48.034462,76.447922 
z"/>
<path fill="#040404" opacity="1.000000" stroke="none" 
	d="
M135.202774,107.974319 
	C134.469635,107.213058 134.002716,106.479332 134.000565,105.744247 
	C133.962479,92.765427 133.785233,79.782585 134.039780,66.808510 
	C134.321091,52.470879 144.300415,42.032520 158.834946,40.338345 
	C171.701385,38.838600 183.948303,47.596649 187.448517,60.811077 
	C187.659637,61.608204 187.936966,62.426052 187.938583,63.234749 
	C187.968140,78.002884 187.960159,92.771095 187.960159,107.771759 
	C183.436096,107.771759 179.041458,107.771759 174.149353,107.771759 
	C174.149353,103.317070 174.149353,99.074120 174.149353,94.696320 
	C165.237808,94.696320 156.823853,94.696320 148.146362,94.696320 
	C148.146362,98.984962 148.146362,103.110764 148.146362,108.001213 
	C143.832397,108.001213 139.758835,108.001213 135.202774,107.974319 
M159.521622,80.649384 
	C164.299515,80.649384 169.077393,80.649384 174.055939,80.649384 
	C174.055939,75.443443 174.307465,70.788940 173.994400,66.172722 
	C173.571381,59.934998 167.475281,54.375393 161.363342,54.201283 
	C155.666855,54.039009 148.923111,59.251217 148.260651,65.134346 
	C147.695938,70.149475 148.143951,75.278633 148.143951,80.649368 
	C151.928192,80.649368 155.231613,80.649368 159.521622,80.649384 
z"/>
<path fill="#030303" opacity="1.000000" stroke="none" 
	d="
M123.550842,37.546734 
	C123.907326,61.155769 123.907326,84.450592 123.907326,107.725433 
	C118.574188,109.288788 118.739113,103.349747 115.648880,101.974678 
	C100.602608,111.095444 88.795540,110.802299 79.593430,101.075706 
	C70.972229,91.963142 69.951782,76.257469 77.315750,66.020035 
	C84.943153,55.416378 97.035355,52.749332 110.869690,58.928810 
	C110.869690,51.683208 110.869690,44.632942 110.869690,37.232525 
	C115.279182,37.232525 119.236763,37.232525 123.550842,37.546734 
M107.276039,90.738556 
	C107.984406,89.617538 108.800697,88.549644 109.383041,87.366592 
	C112.389366,81.259178 109.528824,73.605125 102.971436,70.067932 
	C97.490303,67.111298 90.805428,69.561234 87.489075,75.742050 
	C84.527763,81.261177 85.949852,88.354897 90.829956,92.407196 
	C96.027596,96.723183 100.215370,96.444206 107.276039,90.738556 
z"/>
<path fill="#050505" opacity="1.000000" stroke="none" 
	d="
M48.135876,76.064270 
	C51.458107,65.043198 54.763161,54.430031 57.839371,43.750946 
	C58.590237,41.144299 59.516182,39.814339 62.518696,40.040222 
	C66.478981,40.338161 70.478569,40.113491 75.092049,40.113491 
	C67.577393,63.012882 60.206623,85.473824 52.876560,107.810715 
	C39.016434,108.525574 39.019958,108.524422 34.794220,95.609848 
	C29.069132,78.113007 23.336943,60.618492 17.612896,43.121315 
	C17.363346,42.358494 17.164673,41.579037 16.832087,40.424843 
	C22.223186,40.424843 27.268232,40.424843 32.702160,40.424843 
	C36.891304,54.390030 41.121498,68.492058 45.685600,83.707230 
	C46.668560,80.669327 47.351509,78.558624 48.135876,76.064270 
z"/>
<path fill="#F8F8F8" opacity="1.000000" stroke="none" 
	d="
M159.028336,80.649376 
	C155.231613,80.649368 151.928192,80.649368 148.143951,80.649368 
	C148.143951,75.278633 147.695938,70.149475 148.260651,65.134346 
	C148.923111,59.251217 155.666855,54.039009 161.363342,54.201283 
	C167.475281,54.375393 173.571381,59.934998 173.994400,66.172722 
	C174.307465,70.788940 174.055939,75.443443 174.055939,80.649384 
	C169.077393,80.649384 164.299515,80.649384 159.028336,80.649376 
z"/>
<path fill="#FAFAFA" opacity="1.000000" stroke="none" 
	d="
M107.051819,91.040039 
	C100.215370,96.444206 96.027596,96.723183 90.829956,92.407196 
	C85.949852,88.354897 84.527763,81.261177 87.489075,75.742050 
	C90.805428,69.561234 97.490303,67.111298 102.971436,70.067932 
	C109.528824,73.605125 112.389366,81.259178 109.383041,87.366592 
	C108.800697,88.549644 107.984406,89.617538 107.051819,91.040039 
z"/>
</svg>