<svg xmlns="http://www.w3.org/2000/svg" width="24" height="23" fill="none" viewBox="0 0 24 23"><rect width="21" height="22.375" x="-.5" y="-.5" fill="#fff" stroke="#000" transform="matrix(0 -1 -1 0 22.6875 21.6875)"/><rect width="20" height="2" x=".688" y="21.688" fill="#000" transform="rotate(-90 0.6875 21.6875)"/><rect width="5.5" height="1.375" x="11.313" y="21.313" fill="#000" transform="rotate(-90 11.3125 21.3125)"/><rect width="6.875" height="1.375" x="5.813" y="15.813" fill="#000" transform="rotate(-90 5.8125 15.8125)"/><rect width="5.5" height="1.375" x="5.813" y="15.813" fill="#000"/><rect width="1.375" height="1.375" x="18.188" y="13.063" fill="#000"/><rect width="1.375" height="1.375" x="19.563" y="11.688" fill="#000"/><rect width="1.375" height="1.375" x="11.313" y="3.438" fill="#000"/><rect width="1.375" height="1.375" x="12.688" y="4.813" fill="#000"/><rect width="1.375" height="1.375" x="14.063" y="6.188" fill="#000"/><rect width="1.375" height="1.375" x="15.438" y="7.563" fill="#000"/><rect width="1.375" height="1.375" x="16.813" y="8.938" fill="#000"/><rect width="1.375" height="1.375" x="18.188" y="10.313" fill="#000"/><rect width="1.375" height="1.375" x="16.813" y="14.438" fill="#000"/><rect width="1.375" height="1.375" x="15.438" y="15.813" fill="#000"/><rect width="1.375" height="1.375" x="14.063" y="17.188" fill="#000"/><rect width="1.375" height="1.375" x="12.688" y="18.563" fill="#000"/><rect width="1.375" height="1.375" x="11.313" y="19.938" fill="#000"/><rect width="5.5" height="1.375" x="5.813" y="7.563" fill="#000"/><rect width="5.5" height="1.375" x="11.313" y="8.938" fill="#000" transform="rotate(-90 11.3125 8.9375)"/></svg>