<svg xmlns="http://www.w3.org/2000/svg" width="22" height="24" fill="none" viewBox="0 0 22 24"><rect width="21" height="22.375" x=".5" y="-.5" fill="#fff" stroke="#000" transform="matrix(1 0 0 -1 0 22.375)"/><rect width="20" height="2" x="1" y=".375" fill="#000"/><rect width="5.5" height="1.375" x="1.375" y="11" fill="#000"/><rect width="6.875" height="1.375" x="6.875" y="5.5" fill="#000"/><rect width="5.5" height="1.375" x="6.875" y="5.5" fill="#000" transform="rotate(90 6.875 5.5)"/><rect width="1.375" height="1.375" x="9.625" y="17.875" fill="#000" transform="rotate(90 9.625 17.875)"/><rect width="1.375" height="1.375" x="11" y="19.25" fill="#000" transform="rotate(90 11 19.25)"/><rect width="1.375" height="1.375" x="19.25" y="11" fill="#000" transform="rotate(90 19.25 11)"/><rect width="1.375" height="1.375" x="17.875" y="12.375" fill="#000" transform="rotate(90 17.875 12.375)"/><rect width="1.375" height="1.375" x="16.5" y="13.75" fill="#000" transform="rotate(90 16.5 13.75)"/><rect width="1.375" height="1.375" x="15.125" y="15.125" fill="#000" transform="rotate(90 15.125 15.125)"/><rect width="1.375" height="1.375" x="13.75" y="16.5" fill="#000" transform="rotate(90 13.75 16.5)"/><rect width="1.375" height="1.375" x="12.375" y="17.875" fill="#000" transform="rotate(90 12.375 17.875)"/><rect width="1.375" height="1.375" x="8.25" y="16.5" fill="#000" transform="rotate(90 8.25 16.5)"/><rect width="1.375" height="1.375" x="6.875" y="15.125" fill="#000" transform="rotate(90 6.875 15.125)"/><rect width="1.375" height="1.375" x="5.5" y="13.75" fill="#000" transform="rotate(90 5.5 13.75)"/><rect width="1.375" height="1.375" x="4.125" y="12.375" fill="#000" transform="rotate(90 4.125 12.375)"/><rect width="1.375" height="1.375" x="2.75" y="11" fill="#000" transform="rotate(90 2.75 11)"/><rect width="5.5" height="1.375" x="15.125" y="5.5" fill="#000" transform="rotate(90 15.125 5.5)"/><rect width="5.5" height="1.375" x="13.75" y="11" fill="#000"/></svg>