<svg xmlns="http://www.w3.org/2000/svg" width="24" height="23" fill="none" viewBox="0 0 24 23"><rect width="21" height="22.38" x=".81" y="22.19" fill="#fff" stroke="#000" transform="rotate(-90 0.809998 22.19)"/><rect width="20" height="2" fill="#000" transform="matrix(0 -1 -1 0 23.3149 21.69)"/><rect width="5.5" height="1.375" fill="#000" transform="matrix(0 -1 -1 0 12.6876 21.315)"/><rect width="6.875" height="11.002" fill="#000" transform="matrix(0 -1 -1 0 18.1888 15.815)"/><rect width="5.501" height="1.375" fill="#000" transform="matrix(-1 0 0 1 18.1888 15.815)"/><rect width="1.375" height="1.375" fill="#000" transform="matrix(-1 0 0 1 5.81116 13.065)"/><rect width="1.375" height="1.375" fill="#000" transform="matrix(-1 0 0 1 4.43585 11.69)"/><rect width="1.375" height="1.375" fill="#000" transform="matrix(-1 0 0 1 12.6876 3.44)"/><rect width="1.375" height="4.125" fill="#000" transform="matrix(-1 0 0 1 11.3124 4.815)"/><rect width="1.375" height="2.75" fill="#000" transform="matrix(-1 0 0 1 9.93707 6.19)"/><rect width="1.375" height="1.375" fill="#000" transform="matrix(-1 0 0 1 8.56177 7.565)"/><rect width="1.375" height="1.375" fill="#000" transform="matrix(-1 0 0 1 7.18646 8.94)"/><rect width="1.375" height="2.75" fill="#000" transform="matrix(-1 0 0 1 5.81116 10.315)"/><rect width="1.375" height="5.5" fill="#000" transform="matrix(-1 0 0 1 7.18646 10.315)"/><rect width="1.375" height="1.375" fill="#000" transform="matrix(-1 0 0 1 8.56177 15.815)"/><rect width="1.375" height="2.75" fill="#000" transform="matrix(-1 0 0 1 9.93707 15.815)"/><rect width="1.375" height="4.125" fill="#000" transform="matrix(-1 0 0 1 11.3124 15.815)"/><rect width="1.375" height="1.375" fill="#000" transform="matrix(-1 0 0 1 12.6876 19.94)"/><rect width="5.501" height="1.375" fill="#000" transform="matrix(-1 0 0 1 18.1888 7.565)"/><rect width="5.5" height="1.375" fill="#000" transform="matrix(0 -1 -1 0 12.6876 8.94)"/></svg>