<svg xmlns="http://www.w3.org/2000/svg" width="22" height="24" fill="none" viewBox="0 0 22 24"><rect width="21" height="22.38" x=".5" y=".5" fill="#fff" stroke="#000"/><rect width="20" height="2" fill="#000" transform="matrix(1 0 0 -1 1 23.0049)"/><rect width="5.5" height="1.375" fill="#000" transform="matrix(1 0 0 -1 1.375 12.3776)"/><rect width="6.875" height="11.002" fill="#000" transform="matrix(1 0 0 -1 6.875 17.8788)"/><rect width="5.501" height="1.375" fill="#000" transform="matrix(0 -1 -1 0 6.875 17.8788)"/><rect width="1.375" height="1.375" fill="#000" transform="matrix(0 -1 -1 0 9.625 5.50118)"/><rect width="1.375" height="1.375" fill="#000" transform="matrix(0 -1 -1 0 11 4.12588)"/><rect width="1.375" height="1.375" fill="#000" transform="matrix(0 -1 -1 0 19.25 12.3776)"/><rect width="1.375" height="4.125" fill="#000" transform="matrix(0 -1 -1 0 17.875 11.0024)"/><rect width="1.375" height="2.75" fill="#000" transform="matrix(0 -1 -1 0 16.5 9.62706)"/><rect width="1.375" height="1.375" fill="#000" transform="matrix(0 -1 -1 0 15.125 8.25176)"/><rect width="1.375" height="1.375" fill="#000" transform="matrix(0 -1 -1 0 13.75 6.87647)"/><rect width="1.375" height="2.75" fill="#000" transform="matrix(0 -1 -1 0 12.375 5.50118)"/><rect width="1.375" height="5.5" fill="#000" transform="matrix(0 -1 -1 0 12.375 6.87647)"/><rect width="1.375" height="1.375" fill="#000" transform="matrix(0 -1 -1 0 6.875 8.25176)"/><rect width="1.375" height="2.75" fill="#000" transform="matrix(0 -1 -1 0 6.875 9.62706)"/><rect width="1.375" height="4.125" fill="#000" transform="matrix(0 -1 -1 0 6.875 11.0024)"/><rect width="1.375" height="1.375" fill="#000" transform="matrix(0 -1 -1 0 2.75 12.3776)"/><rect width="5.501" height="1.375" fill="#000" transform="matrix(0 -1 -1 0 15.125 17.8788)"/><rect width="5.5" height="1.375" fill="#000" transform="matrix(1 0 0 -1 13.75 12.3776)"/></svg>