<svg xmlns="http://www.w3.org/2000/svg" width="24" height="23" fill="none" viewBox="0 0 24 23"><rect width="21" height="22.38" x="-.5" y="-.5" fill="#fff" stroke="#000" transform="matrix(0 -1 -1 0 22.69 21.69)"/><rect width="20" height="2" x=".685" y="21.69" fill="#000" transform="rotate(-90 0.685059 21.69)"/><rect width="5.5" height="1.375" x="11.312" y="21.315" fill="#000" transform="rotate(-90 11.3124 21.315)"/><rect width="6.875" height="11.002" x="5.811" y="15.815" fill="#000" transform="rotate(-90 5.81116 15.815)"/><rect width="5.501" height="1.375" x="5.811" y="15.815" fill="#000"/><rect width="1.375" height="1.375" x="18.189" y="13.065" fill="#000"/><rect width="1.375" height="1.375" x="19.564" y="11.69" fill="#000"/><rect width="1.375" height="1.375" x="11.312" y="3.44" fill="#000"/><rect width="1.375" height="4.125" x="12.688" y="4.815" fill="#000"/><rect width="1.375" height="2.75" x="14.063" y="6.19" fill="#000"/><rect width="1.375" height="1.375" x="15.438" y="7.565" fill="#000"/><rect width="1.375" height="1.375" x="16.814" y="8.94" fill="#000"/><rect width="1.375" height="2.75" x="18.189" y="10.315" fill="#000"/><rect width="1.375" height="5.5" x="16.814" y="10.315" fill="#000"/><rect width="1.375" height="1.375" x="15.438" y="15.815" fill="#000"/><rect width="1.375" height="2.75" x="14.063" y="15.815" fill="#000"/><rect width="1.375" height="4.125" x="12.688" y="15.815" fill="#000"/><rect width="1.375" height="1.375" x="11.312" y="19.94" fill="#000"/><rect width="5.501" height="1.375" x="5.811" y="7.565" fill="#000"/><rect width="5.5" height="1.375" x="11.312" y="8.94" fill="#000" transform="rotate(-90 11.3124 8.94)"/></svg>